<?xml version="1.0" standalone="no"?>
<!DOCTYPE svg PUBLIC "-//W3C//DTD SVG 20010904//EN"
 "http://www.w3.org/TR/2001/REC-SVG-20010904/DTD/svg10.dtd">
<svg version="1.0" xmlns="http://www.w3.org/2000/svg"
 width="1049.000000pt" height="540.000000pt" viewBox="0 0 1049.000000 540.000000"
 preserveAspectRatio="xMidYMid meet">

<g transform="translate(0.000000,540.000000) scale(0.100000,-0.100000)"
fill="#000000" stroke="none">
<path d="M2583 4243 c-31 -32 -78 -89 -105 -128 -53 -74 -140 -242 -160 -307
-6 -21 -14 -38 -17 -37 -3 0 -24 28 -45 61 -53 82 -148 208 -156 208 -4 0 -23
-35 -43 -79 -113 -246 -177 -519 -177 -751 l0 -102 -127 121 c-189 177 -476
412 -488 399 -11 -11 -36 -181 -46 -320 -29 -371 52 -728 217 -966 24 -35 44
-64 44 -65 0 -1 -55 2 -122 7 -240 17 -539 -17 -796 -91 l-54 -15 24 -25 c66
-71 322 -254 475 -339 93 -53 269 -129 377 -163 424 -136 825 -97 1177 116 49
29 91 53 94 53 4 0 26 -14 51 -30 65 -45 228 -125 314 -154 140 -46 241 -60
425 -60 187 1 292 18 473 75 280 90 592 272 835 485 l47 41 -118 31 c-239 63
-519 92 -739 76 -68 -5 -123 -8 -123 -6 0 2 19 30 41 64 96 141 165 318 201
518 27 152 30 450 4 623 -17 121 -24 147 -35 147 -28 -2 -498 -404 -571 -488
l-37 -44 -6 154 c-8 175 -38 344 -92 506 -36 106 -113 282 -124 282 -7 0 -75
-92 -144 -193 -26 -37 -50 -68 -53 -68 -4 0 -17 26 -29 58 -54 142 -145 290
-246 398 -34 36 -68 65 -76 65 -8 0 -40 -26 -70 -57z"/>
<path d="M5826 3656 c-80 -30 -126 -97 -126 -187 0 -98 47 -149 189 -205 43
-17 91 -45 114 -66 35 -33 39 -41 33 -70 -20 -99 -155 -114 -239 -27 l-37 40
-45 -27 c-25 -14 -45 -29 -45 -33 0 -4 11 -22 24 -40 68 -92 194 -132 309 -97
100 30 150 97 150 198 -1 104 -42 150 -200 220 -109 48 -133 70 -133 119 0 84
121 108 195 39 20 -19 21 -18 63 17 42 34 42 36 25 55 -10 11 -37 31 -61 45
-54 32 -157 41 -216 19z"/>
<path d="M9335 3653 c-158 -57 -250 -189 -250 -358 0 -68 5 -90 31 -145 39
-82 101 -145 184 -184 58 -28 75 -31 155 -31 76 0 99 5 147 27 79 37 142 98
181 177 29 60 32 74 32 161 0 87 -3 101 -32 161 -39 79 -102 141 -181 177 -75
34 -194 41 -267 15z m233 -129 c149 -74 181 -283 63 -402 -47 -47 -86 -64
-158 -70 -147 -11 -259 85 -271 233 -6 80 23 150 86 205 52 47 84 58 168 59
46 1 72 -5 112 -25z"/>
<path d="M4540 3300 l0 -360 55 0 55 0 0 360 0 360 -55 0 -55 0 0 -360z"/>
<path d="M4870 3300 l0 -360 60 0 60 0 0 266 0 266 198 -266 197 -265 58 -1
57 0 0 360 0 360 -55 0 -55 0 -2 -266 -3 -265 -198 265 -198 266 -59 0 -60 0
0 -360z"/>
<path d="M6240 3605 l0 -55 95 0 95 0 0 -305 0 -305 60 0 60 0 0 305 0 305 95
0 95 0 0 55 0 55 -250 0 -250 0 0 -55z"/>
<path d="M6880 3300 l0 -360 60 0 60 0 0 360 0 360 -60 0 -60 0 0 -360z"/>
<path d="M7140 3605 l0 -55 95 0 95 0 0 -305 0 -305 60 0 60 0 0 305 0 305 95
0 95 0 0 55 0 55 -250 0 -250 0 0 -55z"/>
<path d="M7770 3403 c0 -142 5 -274 10 -294 15 -53 80 -122 142 -150 43 -19
70 -24 138 -23 98 0 155 21 210 75 67 67 70 84 70 382 l0 267 -60 0 -60 0 0
-253 c0 -290 -3 -303 -81 -345 -82 -44 -173 -21 -226 58 -22 32 -23 40 -23
286 l0 254 -60 0 -60 0 0 -257z"/>
<path d="M8472 3608 l3 -53 98 -3 97 -3 0 -304 0 -305 55 0 55 0 0 305 0 305
95 0 95 0 0 55 0 55 -251 0 -250 0 3 -52z"/>
<path d="M6503 2848 c-15 -19 -93 -156 -93 -162 0 -3 15 -6 33 -6 30 0 41 9
98 78 91 108 89 102 26 102 -32 0 -59 -5 -64 -12z"/>
<path d="M6343 2616 c-189 -61 -299 -255 -253 -445 16 -69 79 -162 137 -205
57 -42 156 -76 223 -76 67 0 166 34 222 75 134 99 184 297 114 450 -32 71
-111 149 -184 183 -69 31 -192 40 -259 18z m212 -125 c47 -21 99 -70 121 -114
22 -42 29 -137 14 -191 -36 -129 -185 -205 -324 -164 -58 17 -141 102 -156
159 -15 54 -8 154 13 196 23 44 75 93 122 114 54 25 156 25 210 0z"/>
<path d="M8457 2620 c-78 -24 -136 -105 -137 -187 0 -104 57 -161 224 -224 71
-26 116 -67 116 -107 0 -64 -75 -110 -152 -93 -45 10 -95 45 -103 71 -4 11
-10 20 -15 20 -16 0 -100 -54 -100 -64 0 -6 24 -34 54 -62 42 -41 68 -57 112
-70 193 -56 361 80 315 254 -18 66 -71 111 -189 161 -109 46 -142 74 -142 123
0 85 119 106 197 36 l21 -20 41 38 c40 36 41 37 24 56 -39 43 -102 71 -171 74
-37 2 -80 -1 -95 -6z"/>
<path d="M5600 2260 l0 -360 185 0 185 0 0 55 0 55 -125 0 -125 0 0 305 0 305
-60 0 -60 0 0 -360z"/>
<path d="M6930 2565 l0 -55 95 0 95 0 0 -305 0 -305 60 0 60 0 0 305 0 305 95
0 95 0 0 55 0 55 -250 0 -250 0 0 -55z"/>
<path d="M7560 2363 c0 -142 5 -274 10 -294 15 -53 80 -122 142 -150 43 -19
70 -24 138 -23 98 0 155 21 210 75 67 67 70 84 70 382 l0 267 -60 0 -60 0 0
-253 c0 -290 -3 -303 -81 -345 -82 -44 -173 -21 -226 58 -22 32 -23 40 -23
286 l0 254 -60 0 -60 0 0 -257z"/>
</g>
</svg>
